<?xml version="1.0" encoding="utf-8"?>
<!-- Generator: Adobe Illustrator 19.0.0, SVG Export Plug-In . SVG Version: 6.00 Build 0)  -->
<svg version="1.1" id="图层_1" xmlns="http://www.w3.org/2000/svg" xmlns:xlink="http://www.w3.org/1999/xlink" x="0px" y="0px"
	 viewBox="0 0 750.7 148.7" style="enable-background:new 0 0 750.7 148.7;" xml:space="preserve">
<style type="text/css">
	.st0{fill:#C0ECFF;}
	.st1{fill:none;stroke:#0085F2;stroke-miterlimit:10;}
	.st2{fill:none;stroke:#0085F2;stroke-miterlimit:10;stroke-dasharray:0.9697,0.9697;}
	.st3{fill:none;stroke:#0085F2;stroke-miterlimit:10;stroke-dasharray:1,1;}
	.st4{fill:#10A2FC;}
	.st5{fill:none;stroke:#0085F2;stroke-linecap:round;stroke-linejoin:round;stroke-dasharray:1,2;}
	.st6{fill:#0085F2;}
	.st7{font-family:'MicrosoftYaHei',"微软雅黑";}
	.st8{font-size:10px;}
	.st9{fill:#303030;}
	.st10{font-size:14px;}
	.st11{fill:#FFFFFF;}
	.st12{fill:none;stroke:#0085F2;stroke-linecap:round;stroke-linejoin:round;stroke-miterlimit:10;}
	.st13{fill:#10A2FC;stroke:#0085F2;stroke-miterlimit:10;}
	.st14{fill:#10A2FC;stroke:#0085F2;stroke-miterlimit:10;stroke-dasharray:1,0;}
</style>
<g id="XMLID_16_">
	<path id="XMLID_71_" class="st0" d="M690.8,75.6H662c-6.6,0-12-5.4-12-12V22.9c0-6.6,5.4-12,12-12h28.8c6.6,0,12,5.4,12,12v40.8
		C702.8,70.2,697.4,75.6,690.8,75.6z"/>
	<path id="XMLID_69_" class="st1" d="M690.8,75.1H662c-6.6,0-12-5.4-12-12V18.4c0-6.6,5.4-12,12-12h28.8c6.6,0,12,5.4,12,12v44.8
		C702.8,69.7,697.4,75.1,690.8,75.1z"/>
	<g id="XMLID_65_">
		<g id="XMLID_172_">
			<polyline id="XMLID_180_" class="st1" points="692.9,62.3 692.9,62.8 692.4,62.8 			"/>
			<line id="XMLID_179_" class="st2" x1="691.4" y1="62.8" x2="660.9" y2="62.8"/>
			<polyline id="XMLID_178_" class="st1" points="660.4,62.8 659.9,62.8 659.9,62.3 			"/>
			<line id="XMLID_177_" class="st3" x1="659.9" y1="61.3" x2="659.9" y2="19.8"/>
			<polyline id="XMLID_176_" class="st1" points="659.9,19.3 659.9,18.8 660.4,18.8 			"/>
			<line id="XMLID_175_" class="st2" x1="661.3" y1="18.8" x2="691.9" y2="18.8"/>
			<polyline id="XMLID_174_" class="st1" points="692.4,18.8 692.9,18.8 692.9,19.3 			"/>
			<line id="XMLID_173_" class="st3" x1="692.9" y1="20.3" x2="692.9" y2="61.8"/>
		</g>
	</g>
	<circle id="XMLID_72_" class="st4" cx="676.4" cy="69.3" r="2.8"/>
	<circle id="XMLID_73_" class="st4" cx="669.7" cy="12.2" r="1.3"/>
	<path id="XMLID_74_" class="st4" d="M683.1,13.5h-9.1c-0.7,0-1.3-0.6-1.3-1.3v0c0-0.7,0.6-1.3,1.3-1.3h9.1c0.7,0,1.3,0.6,1.3,1.3v0
		C684.4,12.9,683.8,13.5,683.1,13.5z"/>
</g>
<g id="XMLID_17_">
	<g id="XMLID_116_">
		<line id="XMLID_119_" class="st5" x1="146.2" y1="44.8" x2="186.9" y2="44.8"/>
		<g id="XMLID_117_">
			<polygon id="XMLID_118_" class="st6" points="185,46.4 186.7,44.8 185,43.1 186.4,43.1 188.1,44.8 186.4,46.4 			"/>
		</g>
	</g>
</g>
<g id="XMLID_19_">
	<g id="XMLID_111_">
		<line id="XMLID_114_" class="st5" x1="346" y1="44.8" x2="386.7" y2="44.8"/>
		<g id="XMLID_112_">
			<polygon id="XMLID_113_" class="st6" points="384.7,46.4 386.4,44.8 384.7,43.1 386.2,43.1 387.9,44.8 386.2,46.4 			"/>
		</g>
	</g>
</g>
<g id="XMLID_25_">
	<g id="XMLID_57_">
		<line id="XMLID_60_" class="st5" x1="556.7" y1="44.8" x2="597.3" y2="44.8"/>
		<g id="XMLID_58_">
			<polygon id="XMLID_59_" class="st6" points="595.4,46.4 597.1,44.8 595.4,43.1 596.8,43.1 598.5,44.8 596.8,46.4 			"/>
		</g>
	</g>
</g>
<text id="XMLID_88_" transform="matrix(1 0 0 1 35.7953 94.572)" class="st6 st7 st8">添加机构</text>
<text id="XMLID_100_" transform="matrix(1 0 0 1 242.6557 94.5718)" class="st6 st7 st8">添加商户</text>
<text id="XMLID_101_" transform="matrix(1 0 0 1 429.5169 94.5718)" class="st6 st7 st8">店长、收银员添加</text>
<text id="XMLID_102_" transform="matrix(1 0 0 1 636.3779 94.5718)" class="st6 st7 st8">店长、收银员收单</text>
<text id="XMLID_24_" transform="matrix(1 0 0 1 27.7953 128.5724)" class="st9 st7 st10">机构管理</text>
<text id="XMLID_23_" transform="matrix(1 0 0 1 234.656 128.5722)" class="st9 st7 st10">商户管理</text>
<text id="XMLID_22_" transform="matrix(1 0 0 1 441.5169 128.5722)" class="st9 st7 st10">用户管理</text>
<text id="XMLID_21_" transform="matrix(1 0 0 1 648.8867 128.5722)" class="st9 st7 st10">商户APP</text>
<g id="XMLID_36_">
	<g id="XMLID_107_">
		<path id="XMLID_124_" class="st0" d="M287.1,47.7c-3.7,0-7-2.4-8.1-5.8c-1.2,3.4-4.4,5.8-8.1,5.8c-3.7,0-7-2.4-8.1-5.8
			c-1.2,3.4-4.4,5.8-8.1,5.8c-3.7,0-7-2.4-8.1-5.8c-1.1,3.2-4.1,5.6-7.6,5.8v17.6c0,4.2,3.5,7.7,7.7,7.7h36.2c4.2,0,7.7-3.5,7.7-7.7
			V47.1C289.4,47.5,288.2,47.7,287.1,47.7z"/>
	</g>
	<path id="XMLID_121_" class="st11" d="M254.1,64.3h-6.7c-1.7,0-3-1.3-3-3v-6.7c0-1.7,1.3-3,3-3h6.7c1.6,0,3,1.3,3,3v6.7
		C257.1,62.9,255.7,64.3,254.1,64.3z"/>
	<path id="XMLID_110_" class="st11" d="M267.4,73V55.4c0-1.7,1.4-3.2,3.2-3.2h6.4c1.7,0,3.2,1.4,3.2,3.2V73"/>
	<path id="XMLID_109_" class="st4" d="M269.9,73V57.9c0-1.7,1.4-3.2,3.2-3.2h3.9c1.7,0,3.2,1.4,3.2,3.2V73"/>
	<path id="XMLID_90_" class="st1" d="M267.4,73V55.4c0-1.7,1.4-3.2,3.2-3.2h6.4c1.7,0,3.2,1.4,3.2,3.2V73"/>
	<path id="XMLID_63_" class="st1" d="M282.7,73h-40.1c-4.2,0-7.7-3.5-7.7-7.7V39.7c0-4.2,3.5-7.7,7.7-7.7h40.1
		c4.2,0,7.7,3.5,7.7,7.7v25.7C290.4,69.6,286.9,73,282.7,73z"/>
	<g id="XMLID_99_">
		<rect id="XMLID_103_" x="243.3" y="29.5" class="st11" width="44.4" height="5.5"/>
		<polygon id="XMLID_104_" class="st11" points="234.1,38.8 232.9,42.6 234.6,43.9 238.4,44.8 238.8,38.8 		"/>
		<g id="XMLID_82_">
			<path id="XMLID_87_" class="st4" d="M252.1,18.2l-1.9,19.1h0c0.1,3.3,2.1,6.1,5,7.3c1,0.4-0.4,0.1,0.7,0.1c4.4,0,6.8-6,6.8-7.5
				v-0.2l0.6-18.9H252.1z"/>
			<path id="XMLID_86_" class="st0" d="M266.5,18.2v19.1h0c0.1,3.8,2.7,6.9,6.2,7.7c0.6,0.1-0.6,0.4,0,0.2c3.8-0.9,5.9-5.3,6.2-7.9
				l0-0.6l-2.2-18.5H266.5z"/>
			<path id="XMLID_85_" class="st4" d="M280.8,18.2l1.9,19.1h0c0.1,3.8,2.7,6.9,6.2,7.7c0.6,0.1,1.3-0.3,1.9-0.7
				c2.3-1.8,4.4-4.5,4.4-7.7H295l-5.6-18.4H280.8z"/>
			<path id="XMLID_84_" class="st0" d="M239.7,18.2l-5.8,19.1h0c0.1,3.2,2,6,4.8,7.2c1,0.5-0.7,0,0.5,0.1c3,0.1,7-3.9,7.1-8.3h0.2
				l2.1-18.1H239.7z"/>
		</g>
		<g id="XMLID_37_">
			<path id="XMLID_75_" class="st12" d="M248.3,18.2l-1.9,19.1h0c0.1,4.4,3.7,8,8.1,8c4.4,0,8-3.6,8.1-8h0V18.2H248.3z"/>
			<path id="XMLID_38_" class="st12" d="M262.7,18.2v19.1h0c0.1,4.4,3.7,8,8.1,8c4.4,0,8-3.6,8.1-8h0L277,18.2H262.7z"/>
			<path id="XMLID_39_" class="st12" d="M277,18.2l1.9,19.1h0c0.1,4.4,3.7,8,8.1,8c4.4,0,8-3.6,8.1-8h0l-5.8-19.1H277z"/>
			<path id="XMLID_78_" class="st12" d="M235.9,18.2l-5.8,19.1h0c0.1,4.4,3.7,8,8.1,8c4.4,0,8-3.6,8.1-8h0l1.9-19.1H235.9z"/>
		</g>
	</g>
	<path id="XMLID_108_" class="st4" d="M254.1,64.3h-4.7c-1.7,0-3-1.3-3-3v-4.7c0-1.7,1.3-3,3-3h4.7c1.6,0,3,1.3,3,3v4.7
		C257.1,62.9,255.7,64.3,254.1,64.3z"/>
	<path id="XMLID_18_" class="st1" d="M254.1,64.3h-6.7c-1.7,0-3-1.3-3-3v-6.7c0-1.7,1.3-3,3-3h6.7c1.6,0,3,1.3,3,3v6.7
		C257.1,62.9,255.7,64.3,254.1,64.3z"/>
</g>
<g id="XMLID_105_">
	<g id="XMLID_2_">
		<g id="XMLID_3_">
			<circle id="XMLID_80_" class="st13" cx="451.1" cy="34.7" r="4.8"/>
			<circle id="XMLID_81_" class="st13" cx="488" cy="34.7" r="4.8"/>
			<rect id="XMLID_4_" x="450.3" y="26.7" class="st11" width="10.7" height="13.8"/>
		</g>
		<g id="XMLID_8_">
			<path id="XMLID_6_" class="st0" d="M495.4,67.3c0-2.8-2.2-5-5-5h-41.7c-2.8,0-5,2.2-5,5v8.3h51.7V67.3z"/>
			<path id="XMLID_79_" class="st1" d="M495.4,63.3c0-2.8-2.2-5-5-5h-41.7c-2.8,0-5,2.2-5,5v12.3h51.7V63.3z"/>
			<ellipse id="XMLID_106_" class="st11" cx="469.5" cy="59.2" rx="6.8" ry="6.2"/>
			<path id="XMLID_83_" class="st0" d="M464.3,50.5v8.1c0,3.8,2.5,6.8,6.2,6.8c1,0,4.2-3,4.2-6.8v-8.1H464.3z"/>
			<path id="XMLID_7_" class="st1" d="M462.7,50.5v8.1c0,3.8,3,6.8,6.8,6.8s6.8-3,6.8-6.8v-8.1H462.7z"/>
			<polygon id="XMLID_13_" class="st11" points="460.9,50.5 461.9,54.1 463.5,54.9 463.2,55.7 463.2,59 464.3,59.1 464.3,52.4 
				464.7,49.2 460.7,48.8 			"/>
			<polygon id="XMLID_12_" class="st11" points="475.8,58.8 474.8,58.8 474.8,57.6 475.8,57.6 475.8,58.6 			"/>
		</g>
		<g id="XMLID_5_">
			<path id="XMLID_9_" class="st0" d="M484.8,20.7h-24.5c-3.3,0-6,2.7-6,6v9.8c0,10.6,6.7,19.2,17.2,19.2h0.6
				c6.4,0,16.7-8.7,16.7-19.2v-9.8C488.8,23.4,488.1,20.7,484.8,20.7z"/>
		</g>
		<path id="XMLID_68_" class="st1" d="M469.5,55.7L469.5,55.7c-10.6,0-19.3-8.7-19.3-19.2v-9.9c0-10.6,8.7-13.2,19.2-13.2h0
			c10.6,0,19.2,2.7,19.2,13.2v9.9C488.8,47.1,480.1,55.7,469.5,55.7z"/>
		<g id="XMLID_10_">
			<path id="XMLID_11_" class="st12" d="M475.2,34.3c0-1.9,1.6-3.5,3.5-3.5s3.5,1.6,3.5,3.5"/>
			<path id="XMLID_14_" class="st12" d="M457.4,34.3c0-1.9,1.6-3.5,3.5-3.5s3.5,1.6,3.5,3.5"/>
		</g>
		<path id="XMLID_15_" class="st12" d="M462.9,42.2c1.1,2.8,3.7,4.7,6.9,4.7c3.1,0,5.8-2,6.9-4.7"/>
		<path id="XMLID_20_" class="st13" d="M478.8,9.6h-18.5c0,0,0,0,0,0V7.3c-2.9,0-5.4,1.9-6.3,4.6c0,0-0.1,0.1-0.1,0.1V5.3
			c-4.2,0-7.6,3.4-7.6,7.6c0,2.9,1.6,5.4,4,6.7c0,0,0,0,0,0.1v7.1c0-3.3,2.7-6,6-6h26.5c3.3,0,6,2.7,6,6v-7.1
			C488.8,14.1,484.3,9.6,478.8,9.6z"/>
	</g>
	<path id="XMLID_98_" class="st14" d="M487.8,69.5h-8.6c-0.6,0-1-0.4-1-1v-2.2c0-0.5,0.4-1,1-1h8.6c0.5,0,1,0.5,1,1v2.2
		C488.8,69.1,488.3,69.5,487.8,69.5z"/>
</g>
<g id="XMLID_122_">
	<path id="Path_1_" class="st0" d="M83.7,31.2v40.2c0,0.8-0.7,1.6-1.6,1.6H57.9V17.3"/>
	<path id="Stroke-4_2_" class="st11" d="M73.9,38.6c0,2.8-2.1,4.9-4.9,4.9S64,41.4,64,38.6c0-2.8,2.1-4.9,4.9-4.9
		S73.9,35.8,73.9,38.6L73.9,38.6z"/>
	<path id="Path_2_" class="st0" d="M31.6,44.8v26.7c0,1,0.7,1.6,1.6,1.6h20.9V33"/>
	<path id="Rectangle_2_" class="st11" d="M37.7,53.4h6.6c1,0,1.6,0.7,1.6,1.6v6.6c0,1-0.7,1.6-1.6,1.6h-6.6c-1,0-1.6-0.7-1.6-1.6V55
		C36.1,54.1,36.7,53.4,37.7,53.4z"/>
	<path id="Rectangle_1_" class="st4" d="M39.6,55.3h4.7c1,0,1.6,0.7,1.6,1.6v4.7c0,1-0.7,1.6-1.6,1.6h-4.7c-1,0-1.6-0.7-1.6-1.6
		v-4.7C38,56,38.6,55.3,39.6,55.3z"/>
	<path id="Stroke-3_2_" class="st11" d="M72.2,53.4h-6.6c-1,0-1.6,0.7-1.6,1.6v18.1h9.9V55C73.9,54.1,73.1,53.4,72.2,53.4L72.2,53.4
		z"/>
	<path id="Stroke-3_3_" class="st4" d="M72.2,55.3h-4.7c-1,0-1.6,0.7-1.6,1.6v16.2h8V56.9C73.9,56,73.1,55.3,72.2,55.3L72.2,55.3z"
		/>
	<path id="Stroke-5" class="st13" d="M72.2,25.2V14.9c0-1,0.7-1.6,1.6-1.6h4.9c1,0,1.6,0.7,1.6,1.6v14.8"/>
	<path id="Stroke-4_1_" class="st4" d="M73.9,39.6c0,2.3-1.7,4-4,4c-2.3,0-4-1.7-4-4c0-2.3,1.7-4,4-4C72.2,35.6,73.9,37.3,73.9,39.6
		L73.9,39.6z"/>
	<path id="Path_8_" class="st1" d="M27.8,46.8v24.7c0,1,0.7,1.6,1.6,1.6h24.7V43.5"/>
	<path id="Path_9_" class="st1" d="M83.7,31.2v40.2c0,0.8-0.7,1.6-1.6,1.6H54.2V15.6"/>
	<path id="Rectangle" class="st1" d="M37.7,53.4h6.6c1,0,1.6,0.7,1.6,1.6v6.6c0,1-0.7,1.6-1.6,1.6h-6.6c-1,0-1.6-0.7-1.6-1.6V55
		C36.1,54.1,36.7,53.4,37.7,53.4z"/>
	<path id="Path_10_" class="st12" d="M49.2,13.2L87,33"/>
	<path id="Path_11_" class="st12" d="M54.2,33L24.6,48.5"/>
	<path id="Stroke-3_1_" class="st1" d="M72.2,53.4h-6.6c-1,0-1.6,0.7-1.6,1.6v18.1h9.9V55C73.9,54.1,73.1,53.4,72.2,53.4L72.2,53.4z
		"/>
	<path id="Stroke-4" class="st1" d="M73.9,38.6c0,2.8-2.1,4.9-4.9,4.9S64,41.4,64,38.6c0-2.8,2.1-4.9,4.9-4.9S73.9,35.8,73.9,38.6
		L73.9,38.6z"/>
</g>
</svg>
